<svg version="1.2" xmlns="http://www.w3.org/2000/svg" viewBox="0 0 750 500" width="750" height="500">
	<title>2459468-ai</title>
	<style>
		tspan { white-space:pre } 
		.s0 { fill: #ff8fa3 } 
		.s1 { fill: #407ffe } 
		.s2 { fill: none;stroke: #fefef4;stroke-width: 1.9 } 
		.s3 { fill: none;stroke: #fefef4;stroke-width: 1.5 } 
		.s4 { fill: #fefef4 } 
		.s5 { fill: none;stroke: #fefef4;stroke-width: 4.5 } 
		.s6 { fill: none;stroke: #fefef4;stroke-width: 1.4 } 
		.s7 { fill: none;stroke: #000000;stroke-width: 1.6 } 
		.s8 { fill: #f26e5a } 
		.s9 { fill: none;stroke: #db5749;stroke-width: 1.5 } 
		.s10 { fill: none;stroke: #fce7e4;stroke-width: 1.6 } 
		.s11 { fill: #212529 } 
		.s12 { fill: #db5749 } 
		.s13 { fill: none;stroke: #000000;stroke-linecap: round;stroke-linejoin: round;stroke-width: 1.2 } 
		.s14 { fill: #000000 } 
	</style>
	<g id="OBJECTS">
		<g id="&lt;Group&gt;">
			<g id="&lt;Group&gt;">
				<path id="&lt;Path&gt;" class="s0" d="m203.8 173.5h-114.5c-2.4 0-4.4-2-4.4-4.4 0-2.5 2-4.5 4.4-4.5h114.5c2.4 0 4.4 2 4.4 4.5 0 2.4-2 4.4-4.4 4.4z"/>
				<path id="&lt;Path&gt;" class="s0" d="m414.6 55.3h-74.5c-2.5 0-4.6-2.1-4.6-4.6 0-2.5 2.1-4.5 4.6-4.5h74.5c2.5 0 4.5 2 4.5 4.5 0 2.5-2 4.6-4.5 4.6z"/>
				<rect id="&lt;Path&gt;" class="s1" x="120.9" y="207" width="25.7" height="24.9" rx="6.3"></rect>
				<rect id="&lt;Path&gt;" class="s0" x="512.3" y="437.5" width="14" height="13.6" rx="3.4"></rect>
				<rect id="&lt;Path&gt;" class="s1" x="641.1" y="149.8" width="14" height="13.6" rx="3.4"></rect>
				<path id="&lt;Path&gt;" class="s0" d="m276 449.7h-42.3c-3.2 0-5.7-2.6-5.7-5.7 0-3.1 2.5-5.7 5.7-5.7h42.3c3.1 0 5.7 2.6 5.7 5.7 0 3.1-2.6 5.7-5.7 5.7z"/>
			</g>
			<g id="&lt;Group&gt;">
				<path id="&lt;Path&gt;" class="s2" d="m199.6 147h355.3"/>
				<rect id="&lt;Path&gt;" class="s2" x="199.6" y="111.1" width="355.3" height="298.3" rx="7.2"></rect>
				<g id="&lt;Group&gt;">
					<circle id="&lt;Path&gt;" class="s2" cx="229.6" cy="129.4" r="5"/>
					<circle id="&lt;Path&gt;" class="s2" cx="249.1" cy="129.4" r="5"/>
					<circle id="&lt;Path&gt;" class="s2" cx="268.6" cy="129.4" r="5"/>
				</g>
			</g>
		</g>
		<g id="&lt;Group&gt;">
			<g id="&lt;Group&gt;">
				<rect id="&lt;Path&gt;" class="s0" x="82.4" y="268" width="201.3" height="87.6" rx="10.4"></rect>
				<g id="&lt;Group&gt;">
					<circle id="&lt;Path&gt;" class="s3" cx="103" cy="284.3" r="3.8"/>
					<circle id="&lt;Path&gt;" class="s3" cx="117.9" cy="284.3" r="3.8"/>
					<circle id="&lt;Path&gt;" class="s3" cx="132.7" cy="284.3" r="3.8"/>
				</g>
				<path id="&lt;Path&gt;" class="s3" d="m82.4 298.7h201.3"/>
			</g>
			<g id="&lt;Group&gt;">
				<rect id="&lt;Path&gt;" class="s0" x="504.6" y="67" width="105.5" height="89.8" rx="12.2"></rect>
				<g id="&lt;Group&gt;">
					<path id="&lt;Compound Path&gt;" fill-rule="evenodd" class="s4" d="m550.7 122.1c-10.1 0-18.2-8.2-18.2-18.2 0-10.1 8.1-18.2 18.2-18.2 10 0 18.2 8.1 18.2 18.2 0 10-8.2 18.2-18.2 18.2zm0-32.3c-7.8 0-14.1 6.3-14.1 14.1 0 7.8 6.3 14.1 14.1 14.1 7.8 0 14.1-6.3 14.1-14.1 0-7.8-6.3-14.1-14.1-14.1z"/>
					<path id="&lt;Path&gt;" class="s4" d="m566 122.2l-5.4-5.4 3-2.9 5.3 5.4z"/>
					<path id="&lt;Path&gt;" class="s4" d="m571.7 118.5l10.6 10.6c1.2 1.2 1.2 3 0 4.1l-2.3 2.4c-1.1 1.1-3 1.1-4.1 0l-10.7-10.7c-1.1-1.1-1.1-2.9 0-4.1l2.4-2.3c1.1-1.1 3-1.1 4.1 0z"/>
				</g>
			</g>
			<g id="&lt;Group&gt;">
				<rect id="&lt;Path&gt;" class="s1" x="108" y="60.9" width="74.8" height="67.7" rx="14.1"></rect>
				<g id="&lt;Group&gt;">
					<path id="&lt;Compound Path&gt;" fill-rule="evenodd" class="s4" d="m145.4 109.4c-8.7 0-15.9-7.1-15.9-15.9 0-8.7 7.2-15.8 15.9-15.8 8.7 0 15.8 7.1 15.8 15.8 0 8.8-7.1 15.9-15.8 15.9zm0-27c-6.1 0-11.1 5-11.1 11.1 0 6.1 5 11.1 11.1 11.1 6.1 0 11.1-5 11.1-11.1 0-6.1-5-11.1-11.1-11.1z"/>
					<path id="&lt;Path&gt;" class="s5" d="m154.7 82.4l-18.1 22.2"/>
				</g>
			</g>
			<g id="&lt;Group&gt;">
				<rect id="&lt;Path&gt;" class="s1" x="484.8" y="215" width="194.7" height="151.9" rx="13"></rect>
				<g id="&lt;Group&gt;">
					<circle id="&lt;Path&gt;" class="s6" cx="505" cy="229.4" r="3.7"/>
					<circle id="&lt;Path&gt;" class="s6" cx="519.3" cy="229.4" r="3.7"/>
					<circle id="&lt;Path&gt;" class="s6" cx="533.7" cy="229.4" r="3.7"/>
				</g>
				<path id="&lt;Path&gt;" class="s6" d="m484.8 244.8h194.8"/>
			</g>
		</g>
		<g id="&lt;Group&gt;">
			<g id="&lt;Group&gt;">
				<path id="&lt;Path&gt;" class="s1" d="m425.5 408.5h-112.6q5.6-89 19.6-102.4v-9.7l62.6-3.1 0.7 10.1q42 26.3 29.7 105.1z"/>
				<g id="&lt;Group&gt;">
					<path id="&lt;Path&gt;" class="s7" d="m332.5 306.1l63.3-2.7"/>
					<path id="&lt;Path&gt;" class="s7" d="m345.5 347.1l12.9 5.3 7 56.1"/>
				</g>
			</g>
			<g id="&lt;Group&gt;">
				<g id="&lt;Group&gt;">
					<g id="&lt;Group&gt;">
						<path id="&lt;Path&gt;" class="s8" d="m264.1 284l17.3-57.1 38 14.3-18.2 54.6c-3.7 11.3-16.6 16.6-27.2 11.3-8.5-4.3-12.6-14.1-9.9-23.1z"/>
						<path id="&lt;Path&gt;" class="s4" d="m290.8 196.5c3.4-11.1 15.4-17.2 26.4-13.5 10.7 3.7 16.4 15.3 12.9 26l-10.7 32.2-38-14.3z"/>
					</g>
					<g id="&lt;Group&gt;">
						<path id="&lt;Path&gt;" class="s8" d="m265.2 298l-33.7-94.1-15 3.5c-3.4 0.8-6.2 0.1-9.1-1.1l-16.9-7.1c-1.7-0.7-2.3-2.8-1.2-4.4 0.7-1.1 2.3-1.5 3.6-1l1.2 0.5c-1.2-0.8-2.2-1.6-3.1-2.2-0.9-0.7-1.3-1.9-0.8-3 0.6-1.4 2.3-1.9 3.6-1.2l3.4 2.1c-1.7-1.5-3.2-2.8-4.2-3.6-0.9-0.7-1.2-2-0.6-3.1 0.7-1.3 2.4-1.7 3.7-0.8l15.4 10.2 2.1-0.8 11.3-3-8.3-1.2c-1.6-0.2-2.9-1.7-2.6-3.5 0.2-1.5 1.6-2.6 3.1-2.6h8.3q0.5 0 1 0.1v-0.1q24.7 0.9 23.7 15.8l43.4 82.3z"/>
						<path id="&lt;Path&gt;" class="s9" d="m275.7 245.9l8 15.2"/>
					</g>
				</g>
				<g id="&lt;Group&gt;">
					<path id="&lt;Path&gt;" class="s4" d="m364 180.7h28.1l7.7 24.9-4.7 87.7-62.6 3.1q-47.4-81.4-24-113.1l16.1-1.2z"/>
					<path id="&lt;Path&gt;" class="s10" d="m306.3 236.3q-4.7-9.8-1.7-31.5"/>
				</g>
				<g id="&lt;Group&gt;">
					<g id="&lt;Group&gt;">
						<path id="&lt;Path&gt;" class="s8" d="m445.4 296.9c-9.7 6.9-23.2 3.7-28.7-6.9l-26.5-51.1 35.3-20 26 53.6c4.1 8.5 1.6 18.8-6.1 24.4z"/>
						<g id="&lt;Group&gt;">
							<path id="&lt;Path&gt;" class="s4" d="m425.5 218.9l-35.3 20-15.6-30.1c-5.2-10.1-1.3-22.4 8.7-27.7 10.3-5.4 23.1-1.3 28.2 9.2z"/>
							<path id="&lt;Path&gt;" class="s10" d="m390.2 238.9l-12.9-24.9"/>
						</g>
					</g>
					<g id="&lt;Group&gt;">
						<path id="&lt;Path&gt;" class="s8" d="m504.4 185.1l-16.9 6q-1.7 0.7-3.5 0.9h-0.1q-1.1 0.1-2.1 0h-11.4l-17.8 94.6-30.8-13.7 31.1-88.1q-1.8-8.2 3.2-12.2 0.1 0 0.2-0.1c3.6-3.2 8.4-5 13.3-5h8.2c1.6 0 3 1.1 3.2 2.6 0.2 1.8-1 3.3-2.7 3.5l-8.3 1.2 11.3 3 11.1-11.5c1.1-1.3 3-1.5 4.3-0.3 1.2 1 1.2 2.8 0.3 4l-5.6 7.4 6.6-5.3c1.2-1.1 3.2-0.8 4.2 0.6 0.9 1.2 0.6 3-0.6 4l-7.1 6 7.6-3c1.3-0.5 2.8-0.1 3.6 1.1 1.1 1.5 0.4 3.6-1.3 4.3z"/>
						<path id="&lt;Path&gt;" class="s9" d="m433.9 236.3l-6.7 23.4"/>
					</g>
				</g>
			</g>
			<g id="&lt;Group&gt;">
				<path id="&lt;Path&gt;" class="s11" d="m379.5 126.1c0.5 2.9 0.8 4.3 2.7 7.6 2.4 4.2 6.3 7.3 10.6 9.4q15.1 7.2 14.1 17.2-83.3 24.7-114.6 1.2 3.8-16.6 15.7-25 4.4-3.2 0.1-19.9c0.3-2.4 13.3-5.8 15.2-7.1 32.1-22.1 54.8 8.4 56.2 16.6z"/>
				<path id="&lt;Path&gt;" class="s12" d="m324.6 134.6c0.3 5.5-3.8 10.3-9.3 10.7-5.5 0.3-10.3-3.8-10.7-9.3-0.3-5.5 3.8-10.3 9.3-10.7 5.5-0.4 10.3 3.8 10.7 9.3z"/>
				<path id="&lt;Path&gt;" class="s8" d="m352.1 147l3.8 34.1c-0.3 6.4-7.9 11.6-14.3 12-7.5 0.5-10.7-4.7-11.1-12.3l-1.4-21.7z"/>
				<path id="&lt;Path&gt;" class="s8" d="m324.6 182.1l39.4-1.4q-0.9 19.4-24.4 17.6-16.3-1.2-15-16.2z"/>
				<path id="&lt;Path&gt;" class="s12" d="m328.9 156.8l26.5-4.5-25.2 24.7z"/>
				<path id="&lt;Path&gt;" class="s8" d="m335.7 162.6c-12.8 0-23.4-10.1-23.8-20.6l-0.8-24.7c-0.5-13.1 9.6-24.3 22.7-25.2 13.4-0.9 27.4 9 28.3 22.4l0.4 19.9c0.3 15.4-11.5 27.1-26.8 28.2z"/>
				<g id="&lt;Group&gt;">
					<path id="&lt;Path&gt;" class="s13" d="m327.8 139.6l-3.2-0.1 0.7-6.2"/>
					<path id="&lt;Path&gt;" class="s14" d="m345.4 121.1c-0.6 1.8-2.2 2.3-8.4 1.9q-6.1-0.4-6.1-2.4 0-2.9 7.1-2.3c3.3 0 8 0.9 7.4 2.8z"/>
					<path id="&lt;Path&gt;" class="s14" d="m317.5 122.5q5.3-0.4 5.8 2.2 0.3 1.8-4.4 2c-4.7 0.3-6.1-0.3-6.2-1.8-0.1-1.7 2.2-2.4 4.8-2.4z"/>
					<circle id="&lt;Path&gt;" class="s14" cx="318.3" cy="131.1" r="2.3"/>
					<circle id="&lt;Path&gt;" class="s14" cx="337.4" cy="130.4" r="2.3"/>
					<path id="&lt;Path&gt;" class="s13" d="m333 143.8q-3.4-1.5-7.4 2"/>
				</g>
				<path id="&lt;Path&gt;" class="s11" d="m379.8 130.4l-9.1-8.2-8.2 12.2c-9.2-9-11.2-14.7-13.4-24q-15.2 7.2-41 6.2-0.6-1.4 0.2-5.2c2.4-14.8 16.2-20.5 23.9-22.6 3.1-0.8 6.3-1.1 9.5-1 38.2 2.1 38.2 42.9 38.1 42.6z"/>
				<g id="&lt;Group&gt;">
					<path id="&lt;Path&gt;" class="s8" d="m375.9 134.7c0.4 5.5-3.8 10.3-9.3 10.7-5.5 0.3-10.3-3.8-10.6-9.3-0.4-5.5 3.7-10.3 9.2-10.7 5.5-0.4 10.3 3.8 10.7 9.3z"/>
					<path id="&lt;Path&gt;" class="s13" d="m362.1 138.2q-0.5-7.2 6.5-6.5"/>
				</g>
			</g>
		</g>
	</g>
</svg>