<svg version="1.2" xmlns="http://www.w3.org/2000/svg" viewBox="0 0 1500 1000" width="1500" height="1000">
	<title>2463858-ai</title>
	<style>
		.s0 { fill: #859cc6 } 
		.s1 { fill: #b4c1e3 } 
		.s2 { opacity: .4;mix-blend-mode: multiply;fill: #e0e0e0 } 
		.s3 { fill: #f3efe5 } 
		.s4 { fill: none;stroke: #ffffff;stroke-width: 2 } 
		.s5 { fill: #fdfefd } 
		.s6 { fill: #6e679d } 
		.s7 { fill: #f4a671 } 
		.s8 { fill: none;stroke: #dbd2c1;stroke-width: 6 } 
		.s9 { fill: #fb959d } 
		.s10 { fill: #67c8d4 } 
		.s11 { fill: none;stroke: #282425;stroke-width: 1.3 } 
		.s12 { fill: #111739 } 
		.s13 { opacity: .6;fill: #fdfefd } 
		.s14 { fill: #555189 } 
		.s15 { fill: none;stroke: #111739;stroke-linecap: round;stroke-width: 5.6 } 
		.s16 { fill: #e87785 } 
		.s17 { fill: #282425 } 
		.s18 { fill: none;stroke: #353434;stroke-width: .8 } 
		.s19 { fill: none;stroke: #282425;stroke-width: 1.2 } 
		.s20 { fill: #fad780 } 
		.s21 { fill: none;stroke: #fdfefd;stroke-linecap: round;stroke-linejoin: round;stroke-width: 3 } 
		.s22 { fill: none;stroke: #ffffff;stroke-width: 2.2 } 
		.s23 { fill: none;stroke: #ffffff;stroke-linecap: round;stroke-linejoin: round;stroke-width: 2.7 } 
		.s24 { fill: none;stroke: #ffffff;stroke-width: 2.7 } 
		.s25 { fill: #fefef4 } 
	</style>
	<g id="OBJECTS">
		<g id="&lt;Group&gt;">
			<g id="&lt;Group&gt;">
				<g id="&lt;Group&gt;">
					<path id="&lt;Path&gt;" class="s0" d="m832.9 777.8h-129v-81.5h129z" />
					<path id="&lt;Path&gt;" class="s1" d="m813.6 777.8h-129v-81.5h129z" />
					<path id="&lt;Path&gt;" class="s0" d="m888.4 802.2h-261.8c0-13.5 10.9-24.4 24.4-24.4h212.9c13.5 0 24.5 10.9 24.5 24.4z" />
					<path id="&lt;Path&gt;" class="s2" d="m832.9 731.3h-148.3v-11.5h148.3z" />
				</g>
				<g id="&lt;Group&gt;">
					<g id="&lt;Group&gt;">
						<g id="&lt;Group&gt;">
							<path id="&lt;Path&gt;" class="s0" d="m1062.9 720.2h-580.9c-9.8 0-17.8-8-17.8-17.8v-397.5c0-9.8 8-17.8 17.8-17.8h580.9c9.8 0 17.8 8 17.8 17.8v397.5c0 9.8-8 17.8-17.8 17.8z" />
							<path id="&lt;Path&gt;" class="s1" d="m1046.6 720.2h-580.9c-9.8 0-17.8-8-17.8-17.8v-397.5c0-9.8 8-17.8 17.8-17.8h580.9c9.8 0 17.8 8 17.8 17.8v397.5c0 9.8-8 17.8-17.8 17.8z" />
						</g>
						<path id="&lt;Path&gt;" class="s3" d="m1040.4 644.8h-566.1v-333.5h566.1z" />
						<path id="&lt;Path&gt;" class="s4" d="m768.4 680.7c0 8.7-7 15.6-15.6 15.6c-8.6 0-15.6-6.9-15.6-15.6c0-8.6 7-15.6 15.6-15.6c8.6 0 15.6 7 15.6 15.6z" />
						<g id="&lt;Group&gt;">
							<path id="&lt;Path&gt;" class="s5" d="m1040.4 351.9h-566.1v-40.6h566.1z" />
							<g id="&lt;Group&gt;">
								<path id="&lt;Path&gt;" class="s6" d="m516.7 331.8c0 3.8-3.1 7-6.9 7c-3.9 0-7-3.2-7-7c0-3.9 3.1-7 7-7c3.8 0 6.9 3.1 6.9 7z" />
								<path id="&lt;Path&gt;" class="s6" d="m545.5 331.8c0 3.8-3.1 7-6.9 7c-3.9 0-7-3.2-7-7c0-3.9 3.1-7 7-7c3.8 0 6.9 3.1 6.9 7z" />
								<path id="&lt;Path&gt;" class="s6" d="m576.2 331.8c0 3.8-3.2 7-7 7c-3.8 0-7-3.2-7-7c0-3.9 3.2-7 7-7c3.8 0 7 3.1 7 7z" />
							</g>
						</g>
					</g>
					<g id="&lt;Group&gt;">
						<path id="&lt;Path&gt;" class="s1" d="m934.4 437.7h-181.4c-2.8 0-5.1-2.3-5.1-5.1v-35.7c0-2.8 2.3-5.1 5.1-5.1h181.4c2.8 0 5 2.3 5 5.1v35.7c0 2.8-2.2 5.1-5 5.1z" />
						<path id="&lt;Path&gt;" class="s7" d="m936.1 586.7h-180.7c-2.8 0-5-2.2-5-5v-116.3c0-2.8 2.2-5 5-5h180.7c2.7 0 4.9 2.2 4.9 5v116.3c0 2.8-2.2 5-4.9 5z" />
						<g id="&lt;Group&gt;">
							<g id="&lt;Group&gt;">
								<path id="&lt;Path&gt;" class="s8" d="m537.5 468.1h182.2" />
							</g>
							<g id="&lt;Group&gt;">
								<path id="&lt;Path&gt;" class="s8" d="m537.5 495.3h182.2" />
							</g>
							<g id="&lt;Group&gt;">
								<path id="&lt;Path&gt;" class="s8" d="m537.5 522.6h182.2" />
							</g>
							<g id="&lt;Group&gt;">
								<path id="&lt;Path&gt;" class="s8" d="m537.5 549.9h182.2" />
							</g>
						</g>
					</g>
				</g>
			</g>
		</g>
		<g id="&lt;Group&gt;">
			<g id="&lt;Group&gt;">
				<g id="&lt;Group&gt;">
					<g id="&lt;Group&gt;">
						<path id="&lt;Path&gt;" class="s9" d="m958.2 798.6l-11.5 26.7l-22.1-12.8l10.7-25.5z" />
						<g id="&lt;Group&gt;">
							<path id="&lt;Path&gt;" class="s10" d="m955.4 827.9l-15.9 44.3l-82.9-47.7l2.4-3.4c4-5.9 11.1-9 18.1-7.8l32.7 9.9l9.2-16z" />
							<path id="&lt;Path&gt;" class="s11" d="m862.3 817.4l80.2 46.3" />
							<path id="&lt;Path&gt;" class="s11" d="m939.6 841.1c-2.6 4.6-8.5 6.2-13.1 3.5c-4.6-2.6-6.2-8.5-3.5-13.1c2.6-4.6 8.5-6.2 13.1-3.5c4.6 2.6 6.2 8.5 3.5 13.1z" />
							<path id="&lt;Path&gt;" class="s11" d="m893.5 818.3l2 8" />
							<path id="&lt;Path&gt;" class="s11" d="m902 820.9l2 8" />
						</g>
					</g>
					<g id="&lt;Group&gt;">
						<path id="&lt;Path&gt;" class="s6" d="m1058.2 561.4q11.8 24.1-18.7 88.2q-30.6 64.1-73.9 167.1l-43.9-25.3l85.9-247.6z" />
						<path id="&lt;Path&gt;" class="s11" d="m971.7 802.1l-44.8-25.8" />
					</g>
				</g>
				<g id="&lt;Group&gt;">
					<g id="&lt;Group&gt;">
						<path id="&lt;Path&gt;" class="s9" d="m1181 692.4l29 3.5l-7.2 24.5l-27.7-3z" />
						<g id="&lt;Group&gt;">
							<path id="&lt;Path&gt;" class="s10" d="m1210.5 686.8l46.8 5.1l-26.8 91.8l-3.9-1.5c-6.7-2.5-11.4-8.7-11.9-15.8l2-34.1l-17.7-5.2z" />
							<path id="&lt;Path&gt;" class="s11" d="m1222.2 779.9l26.2-89" />
							<path id="&lt;Path&gt;" class="s11" d="m1227.1 699.1c5.1 1.5 8 6.8 6.5 11.9c-1.5 5.1-6.9 8-12 6.5c-5.1-1.5-8-6.8-6.5-11.9c1.5-5.1 6.9-8 12-6.5z" />
							<path id="&lt;Path&gt;" class="s11" d="m1215.7 749.3l7.3-3.9" />
							<path id="&lt;Path&gt;" class="s11" d="m1216.2 740.4l7.4-3.8" />
						</g>
					</g>
					<g id="&lt;Group&gt;">
						<path id="&lt;Path&gt;" class="s6" d="m1195.5 680.8l-17.4 53.8l-113.9-17.2q-1.3-0.4-2.5-1c-18.2-7.9-30-25.9-31.1-45.7l-6.7-119l15.2 11.1l3.5-17.2l44.3 2.5q10.9 10.3 4.8 52.9l1.2 63.8z" />
						<path id="&lt;Path&gt;" class="s11" d="m1178.7 678.2l-16.4 54" />
						<path id="&lt;Path&gt;" class="s11" d="m1012.2 598.8l15.1 13.7l3.3 58.2" />
					</g>
				</g>
			</g>
			<g id="&lt;Group&gt;">
				<g id="&lt;Group&gt;">
					<g id="&lt;Group&gt;">
						<path id="&lt;Path&gt;" class="s9" d="m1003.3 565.8c-9.7 2.9-19.9-2.6-23-12.3c-5.8-18.2-8.9-37-10.5-52.4l39.8-3.2l6.9 46.7c1.7 9.4-4 18.6-13.2 21.2z" />
						<path id="&lt;Path&gt;" class="s5" d="m1009.6 497.9l-39.8 3.2c-1.2-11.3-1.6-20.9-1.7-27c-0.1-9.4 6.8-17.5 16.1-18.9c10.1-1.5 19.5 5.3 21.3 15.3z" />
					</g>
					<g id="&lt;Group&gt;">
						<path id="&lt;Path&gt;" class="s9" d="m1003.5 534.5c12 6.9 12 24.3-0.2 31.1l-79.5 31.6l-8-17.9l69.8-44.6c5.5-3.3 12.3-3.3 17.9-0.2z" />
						<g id="&lt;Group&gt;">
							<g id="&lt;Group&gt;">
								<path id="&lt;Path&gt;" class="s12" d="m886.4 530l8.2 18c0.8 1.6 0.1 3.6-1.6 4.4l-6.4 3.2c-1.6 0.7-3.5 0.2-4.4-1.4l-9-15.1z" />
								<g id="&lt;Group&gt;">
									<path id="&lt;Path&gt;" class="s13" d="m881.2 463.6c13.2 32.3 11.3 63.6-4.1 69.9c-15.4 6.3-38.6-14.8-51.8-47.1c-13.1-32.3-11.3-63.6 4.1-69.9c15.4-6.3 38.6 14.8 51.8 47.1z" />
									<path id="&lt;Compound Path&gt;" fill-rule="evenodd" class="s14" d="m814.6 492.5c-15.2-36.3-11.9-71.2 7.6-79.4c19.4-8.2 46.7 13.9 61.9 50.2c7.1 16.8 10.4 34.1 9.4 48.6c-1.1 15.7-7.1 26.6-16.9 30.7c-5.8 2.5-12.2 2.2-18.7-0.2c-15.8-5.8-32.5-24.3-43.3-49.9zm11.1-71c-14.3 6-15.5 36.9-2.6 67.4c12.8 30.6 35.7 51.3 49.9 45.3c6.4-2.7 10.6-11 11.4-22.9c0.9-13.2-2.2-29-8.7-44.5c-9.6-22.8-24.8-40.1-37.8-44.9c-4.4-1.7-8.6-1.9-12.2-0.4z" />
									<path id="&lt;Compound Path&gt;" fill-rule="evenodd" class="s6" d="m820.2 489.4c-15.3-36.3-12-71.2 7.5-79.4c19.5-8.1 46.7 13.9 62 50.2c7.1 16.8 10.4 34.1 9.4 48.7c-1.1 15.6-7.1 26.5-16.9 30.7c-5.8 2.4-12.2 2.2-18.8-0.3c-15.7-5.8-32.4-24.3-43.2-49.9zm11.1-70.9c-14.3 6-15.5 36.8-2.7 67.4c12.9 30.5 35.8 51.2 50 45.2c6.4-2.6 10.5-11 11.4-22.9c0.9-13.1-2.2-28.9-8.7-44.4c-9.6-22.9-24.8-40.2-37.9-45c-4.4-1.6-8.5-1.8-12.1-0.3z" />
								</g>
								<path id="&lt;Path&gt;" class="s15" d="m886.5 547.5l40.1 76.2" />
							</g>
							<g id="&lt;Group&gt;">
								<path id="&lt;Path&gt;" class="s9" d="m898.5 582.7q-5.9-3.8 1.8-9.2c7.6-5.3 18.2-6.9 28.5 7.7z" />
								<g id="&lt;Group&gt;">
									<path id="&lt;Path&gt;" class="s9" d="m898.2 599.4c-5-8.5-2.2-19.4 6.2-24.4c8.5-5 19.4-2.2 24.4 6.2c5 8.5 2.2 19.4-6.2 24.4c-8.5 5-19.4 2.2-24.4-6.2z" />
								</g>
							</g>
						</g>
					</g>
				</g>
				<g id="&lt;Group&gt;">
					<path id="&lt;Path&gt;" class="s5" d="m1018.5 440.6l29.1-8.6l19.4 6.9l25.3 111.8q-42.1 26.9-89.6 6.9l-23.2-101.5l19.6-8.4z" />
					<path id="&lt;Path&gt;" class="s11" d="m989.5 499.5l-4.4-19" />
				</g>
				<g id="&lt;Group&gt;">
					<g id="&lt;Group&gt;">
						<g id="&lt;Group&gt;">
							<path id="&lt;Path&gt;" class="s9" d="m1109.3 495.4c12.3-6.6 27 2.8 26.2 16.7l-13.5 86.1l-21.1-0.6l-1-87.1c0.2-6.4 3.8-12.1 9.4-15.1z" />
						</g>
						<g id="&lt;Group&gt;">
							<path id="&lt;Path&gt;" class="s9" d="m1100.9 597.6l21.1 0.6c1.7 9.2 1 20 0 25.7q-0.3 1.8-0.8 3.8q0 0-0.1 0.1q-1.1 4.1-3.3 8.7q-0.3 0.6-0.7 1c-1 1.1-2.4 1.3-3.6 0.5q0-0.1-0.1-0.2q-0.1 0.3-0.2 0.5q-0.3 0.6-0.7 1c-1 1-2.5 1.3-3.6 0.4c-0.5-0.3-0.8-0.8-1.1-1.3q-0.2 0.2-0.4 0.4c-1 1.1-2.4 1.3-3.6 0.4c-0.9-0.6-1.4-1.8-1.5-3.1q0 0.1-0.1 0.2c-1 1-2.4 1.2-3.6 0.4c-1.5-1.1-2-3.5-1.1-5.3c5.4-11.1 3.6-15.5 2-17.4l-1.3 1.6c-1.5 1.8-4 1.7-5.3-0.3c-1-1.5-1.1-3.6-0.2-5.2z" />
						</g>
					</g>
					<g id="&lt;Group&gt;">
						<path id="&lt;Path&gt;" class="s9" d="m1127.4 527.2c-8.7 6.8-21 0.2-28.7-7.7l-39.5-32.4l32.8-31.9c13.1 11.7 26.4 25 39.3 42.3c6.9 9.4 5.2 22.5-3.9 29.7z" />
						<path id="&lt;Path&gt;" class="s5" d="m1092 455.2l-32.8 31.9l-20.2-19.6c-8.1-8.4-8.1-21.7 0.1-30.1c7.5-7.7 19.6-8.8 28.3-2.3c5.7 4.2 14.6 11.2 24.6 20.1z" />
						<path id="&lt;Path&gt;" class="s11" d="m1059.2 487.1l-18.5-18" />
					</g>
				</g>
			</g>
			<g id="&lt;Group&gt;">
				<path id="&lt;Path&gt;" class="s9" d="m998.3 423.6l-16.9 12.4c-4.2 3-10.5 1.7-12.4-3.1q-18.5-47.4 1.3-44.9l20.5-0.9z" />
				<path id="&lt;Path&gt;" class="s9" d="m992.6 395.9l28.3 44.8l-26.4 10.5q-11.8-24.9-12.7-25.6z" />
				<path id="&lt;Path&gt;" class="s9" d="m968.2 420.1l-6.7 1.7c-0.9 0.2-1.8-0.6-1.5-1.4c0.7-2.8 2.9-9.4 2.9-10z" />
				<path id="&lt;Path&gt;" class="s16" d="m985.6 432.8l8.2-7.5l-1.7 20.5z" />
				<path id="&lt;Path&gt;" class="s9" d="m1008.1 442.7l12.8-2q1.1 9.1-11 13.8q-12.1 4.7-15.4-3.3z" />
				<path id="&lt;Path&gt;" class="s17" d="m1009.6 393.6q-3.8 11.3-2.3 25.6l-13-5.5l-5.4-7c0.2 0.9-7.5 2.1-10.2-7.8c-0.6-2.2-2.6-3.7-4.9-3.6c-4.6 0.1-11.1 0.2-12-0.1c-9.3-0.9-17.5-14.1-8.1-22c12-10.2 17.1 5.4 32.6 2.1c15.5-3.3 27.2 7.1 23.3 18.3z" />
				<g id="&lt;Group&gt;">
					<path id="&lt;Path&gt;" class="s9" d="m993.5 399.2c4-0.7 7.8 2 8.5 6c0.7 4-2 7.9-6 8.6c-4 0.7-7.9-2-8.6-6c-0.7-4.1 2-7.9 6.1-8.6z" />
					<path id="&lt;Path&gt;" class="s17" d="m990.5 408.8q-0.1 0-0.1 0c-0.3 0-0.4-0.3-0.4-0.6c0 0 1.3-6 6.5-5.4c0.3 0 0.5 0.3 0.5 0.6c-0.1 0.3-0.3 0.5-0.6 0.4q-0.1 0-0.2 0c-4.1-0.4-5.2 4.4-5.2 4.6c0 0.3-0.3 0.5-0.5 0.4z" />
				</g>
				<g id="&lt;Group&gt;">
					<path id="&lt;Path&gt;" class="s17" d="m967.4 400.5q3.9-0.4 3.9 1q0 1.5-4.7 1.8q-3.1 0.2-3.3-1.4q-0.1-0.9 4.1-1.4z" />
					<g id="&lt;Group&gt;">
						<path id="&lt;Path&gt;" class="s17" d="m968.7 408.8c0.7 0.9 0.5 2-0.3 2.6c-0.8 0.7-1.9 0.5-2.6-0.3c-0.6-0.8-0.5-1.9 0.4-2.6c0.8-0.6 1.9-0.5 2.5 0.3z" />
					</g>
				</g>
			</g>
		</g>
		<g id="&lt;Group&gt;">
			<g id="&lt;Group&gt;">
				<g id="&lt;Group&gt;">
					<path id="&lt;Path&gt;" class="s18" d="m548.6 426.7l-14.8-1.1" />
				</g>
				<path id="&lt;Path&gt;" class="s9" d="m538.1 405.3q25.1 4.2 16.2 45.6c-1.1 5.1-6.8 7.7-11.5 5.5l-19.1-8.7" />
				<path id="&lt;Path&gt;" class="s9" d="m540.3 446.3q-0.8 0.9-9.1 34.2l-28.1-4.9l20.5-56.2z" />
				<path id="&lt;Path&gt;" class="s9" d="m555.6 430.1c0.1 0.6 2.2 4.9 3.5 7.5c0.4 0.8-0.2 1.8-1.2 1.7l-5.4-0.5z" />
				<path id="&lt;Path&gt;" class="s16" d="m534.3 468.2l-6.8-19.6l10.4 5.6z" />
				<path id="&lt;Path&gt;" class="s17" d="m552 420.3c-4.1 1.1-9.8 1.6-15.8-1.3l-6.6 13.1l-2.2 1.3l-11.6 8.3q-23.9-13.9-12.4-32.8c4.3-7.2 11.1-9.4 17.8-9.4c0 0 32.4-2.9 37.5 9.6c2.7 6.8-2.6 10-6.7 11.2z" />
				<g id="&lt;Group&gt;">
					<path id="&lt;Path&gt;" class="s9" d="m529.9 428.7c1.5 4.3-0.8 8.9-5.1 10.4c-4.3 1.4-8.9-0.9-10.4-5.1c-1.4-4.3 0.9-9 5.1-10.4c4.3-1.5 9 0.8 10.4 5.1z" />
					<path id="&lt;Path&gt;" class="s17" d="m525.6 433.2c-0.2 0-0.4-0.2-0.4-0.4c-0.1-0.1-0.6-2.5-2.4-3.4q-1.6-0.8-3.8 0c-0.2 0.2-0.6 0-0.7-0.3c-0.1-0.2 0.1-0.5 0.3-0.7q2.7-1 4.7 0c2.2 1.2 2.9 4 2.9 4.1c0.1 0.3-0.1 0.6-0.4 0.7q-0.1 0-0.2 0z" />
				</g>
				<g id="&lt;Group&gt;">
					<path id="&lt;Path&gt;" class="s17" d="m550.9 427.7c0.9 0.5 1.3 1.6 0.8 2.5c-0.4 0.9-1.5 1.3-2.5 0.8c-0.9-0.4-1.2-1.5-0.8-2.5c0.5-0.9 1.6-1.2 2.5-0.8z" />
					<path id="&lt;Path&gt;" class="s17" d="m548.8 422.7q4-0.4 4 1.2q0 1.5-4.9 1.7q-3.3 0.1-3.4-1.6q-0.1-0.9 4.3-1.3z" />
				</g>
				<path id="&lt;Path&gt;" class="s17" d="m510 406.9c-2.1 10.9-12.6 18-23.5 15.9c-10.9-2.1-18-12.7-15.8-23.5c2.1-10.9 12.6-18 23.4-15.9c10.9 2.1 18 12.7 15.9 23.5z" />
			</g>
			<g id="&lt;Group&gt;">
				<g id="&lt;Group&gt;">
					<g id="&lt;Group&gt;">
						<path id="&lt;Path&gt;" class="s9" d="m328.9 649.2l-19.7-15.6l10.8-20.3l20.9 16z" />
						<g id="&lt;Group&gt;">
							<path id="&lt;Path&gt;" class="s10" d="m307.4 640.4l-14.8-7.9l-20.2 23.3c-4.8 4.3-11.7 5.3-17.6 2.7l-3.5-1.5l40.6-76.2l33.5 26.3z" />
							<path id="&lt;Path&gt;" class="s19" d="m259.1 659.8l39.2-74" />
							<path id="&lt;Path&gt;" class="s19" d="m310.5 616.3c-2.2 4.2-7.5 5.8-11.7 3.6c-4.2-2.3-5.8-7.5-3.6-11.8c2.3-4.2 7.5-5.8 11.7-3.6c4.3 2.3 5.9 7.5 3.6 11.8z" />
							<path id="&lt;Path&gt;" class="s19" d="m282.6 644.1l-2.3-7.1" />
							<path id="&lt;Path&gt;" class="s19" d="m287.8 638.1l-2.3-7.2" />
						</g>
					</g>
					<g id="&lt;Group&gt;">
						<path id="&lt;Path&gt;" class="s20" d="m471.8 612.5q-13.5 43.4-23.9 77l-3.1 10.6c-5.7 20-29.8 28-46.4 15.5l-76.6-57.8l17.8-42.1l61.8 42.1c1.6-10.2 4.4-21.9 5.4-35.8q4.6-63.9 34.2-67l46.3 14z" />
						<path id="&lt;Path&gt;" class="s19" d="m349.5 622.4l-15.8 44.4" />
					</g>
				</g>
				<g id="&lt;Group&gt;">
					<g id="&lt;Group&gt;">
						<path id="&lt;Path&gt;" class="s9" d="m532.9 793.2l5.2 24.4l-21.7 7.7l-5.8-25.6z" />
						<g id="&lt;Group&gt;">
							<path id="&lt;Path&gt;" class="s10" d="m544 813.9l5.5 15.7l30.7-3.5c6.4 0.2 12.2 4.1 14.8 10l1.6 3.4l-81.6 28.6l-6.8-41.9z" />
							<path id="&lt;Path&gt;" class="s19" d="m592.7 832.3l-79 27.8" />
							<path id="&lt;Path&gt;" class="s19" d="m525.4 829.4c4.5-1.6 9.4 0.8 11 5.3c1.6 4.6-0.7 9.5-5.3 11.1c-4.5 1.6-9.4-0.8-11-5.3c-1.6-4.5 0.7-9.5 5.3-11.1z" />
							<path id="&lt;Path&gt;" class="s19" d="m564.8 827.9l-3.1 6.8" />
							<path id="&lt;Path&gt;" class="s19" d="m556.8 828.8l-3.1 6.8" />
						</g>
					</g>
					<g id="&lt;Group&gt;">
						<path id="&lt;Path&gt;" class="s20" d="m502.1 566.7l42.1 232.6l-43.1 15.2q-21.5-98.6-38-160.5q-16.5-62-2.1-81.5z" />
						<path id="&lt;Path&gt;" class="s19" d="m498 800.6l44.1-15.6" />
						<path id="&lt;Path&gt;" class="s19" d="m434.7 611l21.5 15.6l5 19.9" />
					</g>
				</g>
			</g>
			<g id="&lt;Group&gt;">
				<path id="&lt;Path&gt;" class="s5" d="m547.2 498.3c4.7 37.9-16.2 42-23.1 42.3l-20.2 37.2l-62.9-22.8q26.8-16.5 29-57c0.4-8.2 1-14.1 1.6-18.6c0.9-6.9 7.1-11.8 14.1-11.2l74 7z" />
				<g id="&lt;Group&gt;">
					<g id="&lt;Group&gt;">
						<g id="&lt;Group&gt;">
							<path id="&lt;Path&gt;" class="s9" d="m600.8 451.8l44.2-65.1l16.2 10.1l-32.8 71.6c-6.4 10.8-22.1 10.5-28.1-0.5c-2.7-5.1-2.6-11.2 0.5-16.1z" />
						</g>
						<g id="&lt;Group&gt;">
							<g id="&lt;Group&gt;">
								<path id="&lt;Path&gt;" class="s6" d="m731.4 439.6l-140.7-117.9l42.8-51l140.6 117.9z" />
								<g id="&lt;Group&gt;">
									<path id="&lt;Path&gt;" class="s21" d="m705.1 384.7l-2.1-13.2l13.4 0.9" />
									<path id="&lt;Path&gt;" class="s21" d="m727.6 382.4l1.9 13.3l-13.3-1" />
								</g>
								<g id="&lt;Group&gt;">
									<path id="&lt;Path&gt;" class="s22" d="m637.3 308.8l49.1 40.6" />
									<path id="&lt;Path&gt;" class="s22" d="m628.2 319.8l23.7 19.8" />
								</g>
							</g>
							<g id="&lt;Group&gt;">
								<path id="&lt;Path&gt;" class="s9" d="m645.3 372.3c0.2-1.7 1.3-3.2 2.8-3.9c2-0.8 3.9 0.3 4.1 2.5l-0.1 2.8c2.2-0.6 5.7-3 7.2-14.1c0.3-1.8 1.8-3.4 3.5-3.4c1.3-0.1 2.2 0.8 2.5 2.1q0 0.1 0 0.2c0.7-1 1.7-1.6 2.7-1.7c1.3 0 2.3 0.9 2.5 2.2q0 0.2 0.1 0.5c0.4-0.3 0.9-0.5 1.4-0.5c1.3 0 2.3 0.8 2.5 2.1q0.1 0.5 0.1 1.1q-0.1 0.3-0.1 0.5q0.1 0 0.2-0.1c1.2 0 2.2 0.9 2.4 2.2q0.1 0.5 0.1 1.1q-0.7 4.6-1.9 8.2q0 0 0 0.1q-0.6 1.7-1.3 3.2c-2.1 4.8-7 13.3-12.8 19.4l-16.2-10.1z" />
							</g>
							<path id="&lt;Path&gt;" class="s6" d="m645 364l6.8 1.5l1.8 2.8q-1.1 5.2-1.1 5.2q0 0-11.1-9.3z" />
						</g>
					</g>
					<path id="&lt;Path&gt;" class="s5" d="m544 472.9l35.9-11.2l7 34.5q-59.2 23.8-58.9 22.3q0.3-1.5 16-45.6z" />
					<path id="&lt;Path&gt;" class="s9" d="m579.9 461.7l27.5-11.7c8.4-3.5 17.9 1.7 19.4 10.7c0.9 5.3-1.7 12.4-6 15.5l-33.9 20z" />
				</g>
				<g id="&lt;Group&gt;">
					<g id="&lt;Group&gt;">
						<path id="&lt;Path&gt;" class="s5" d="m485.1 509.1l-34.9 4.1l-0.6-39.8q24.2-9.4 36.1-5.2z" />
						<path id="&lt;Path&gt;" class="s9" d="m450.2 513.2l-25.5 2.5c-9.5 0.9-17.8-6.6-17.7-16.2c0.1-6.8 4.4-12.8 10.8-15l31.8-11.1z" />
					</g>
					<g id="&lt;Group&gt;">
						<g id="&lt;Group&gt;">
							<path id="&lt;Path&gt;" class="s9" d="m427.4 515.5l-71.1 33.8l-8.9-16.9l64.5-45.2c11-6.2 24.4 2 24 14.6c-0.2 5.7-3.5 11-8.5 13.7z" />
						</g>
						<g id="&lt;Group&gt;">
							<path id="&lt;Path&gt;" class="s9" d="m349.4 560.9c-0.9 1.3-2.7 2.1-4.3 1.9c-2.1-0.3-3.2-2.3-2.3-4.2l0.8-1.7c-2.2-0.5-6.5-0.2-13.3 8.5c-1.2 1.5-3.3 2-4.8 1.2c-1.1-0.6-1.5-1.8-1-3q0-0.1 0-0.2c-1 0.5-2.2 0.5-3.1 0c-1.2-0.6-1.6-1.8-1.1-3.1q0.1-0.2 0.2-0.4c-0.5 0-1.1-0.1-1.5-0.4c-1.2-0.6-1.5-1.8-1.1-3.1q0.2-0.5 0.6-1q0.1-0.1 0.2-0.3q-0.1 0-0.1-0.1c-1.2-0.6-1.6-1.8-1.1-3q0.2-0.5 0.5-1q2.9-3.6 5.8-6.2q0 0 0.1 0q1.3-1.2 2.7-2.2c4.2-3.1 12.7-8 20.8-10.2l8.9 16.9z" />
						</g>
					</g>
				</g>
			</g>
		</g>
		<g id="&lt;Group&gt;">
			<path id="&lt;Path&gt;" class="s23" d="m1134.9 198.7v26.3c0 2.4-1.9 4.3-4.2 4.3l-11.6 0.3v13.1l-15.8-13.8h-18.7c-2.4 0-4.3-1.9-4.3-4.3v-25.9c0-2.4 1.9-4.3 4.3-4.3h46c2.3 0 4.3 1.9 4.3 4.3z" />
			<path id="&lt;Path&gt;" class="s1" d="m146.6 593.6c0 6.5-5.2 11.7-11.6 11.7c-6.4 0-11.5-5.2-11.5-11.7c0-6.5 5.1-11.7 11.5-11.7c6.4 0 11.6 5.2 11.6 11.7z" />
			<path id="&lt;Path&gt;" class="s7" d="m454.3 148.4c0 8.7-7 15.8-15.6 15.8c-8.6 0-15.6-7.1-15.6-15.8c0-8.8 7-15.9 15.6-15.9c8.6 0 15.6 7.1 15.6 15.9z" />
			<path id="&lt;Path&gt;" class="s24" d="m1366.5 578.6c0 9.6-7.6 17.3-17.1 17.3c-9.5 0-17.1-7.7-17.1-17.3c0-9.6 7.6-17.4 17.1-17.4c9.5 0 17.1 7.8 17.1 17.4z" />
			<path id="&lt;Path&gt;" class="s1" d="m921.2 108.4l4.3 52.3l-47.6-21.3z" />
			<g id="&lt;Group&gt;">
				<g id="&lt;Group&gt;">
					<g id="&lt;Group&gt;">
						<path id="&lt;Path&gt;" class="s7" d="m199.9 432v-45.8c0-3.1 2.5-5.6 5.6-5.6h171c3.2 0 5.7 2.5 5.7 5.6v45.8c0 3.1-2.5 5.7-5.7 5.7h-171c-3.1 0-5.6-2.6-5.6-5.7z" />
						<g id="&lt;Group&gt;">
							<path id="&lt;Path&gt;" class="s22" d="m234.3 400h94.6" />
							<path id="&lt;Path&gt;" class="s22" d="m234.3 413.7h28.2" />
						</g>
					</g>
					<path id="&lt;Path&gt;" class="s7" d="m360.5 431.2v26.3l-28-26.3z" />
				</g>
				<g id="&lt;Group&gt;">
					<g id="&lt;Group&gt;">
						<path id="&lt;Path&gt;" class="s6" d="m1283.3 364c0 33.8-27.4 61.2-61.1 61.2c-33.8 0-61.2-27.4-61.2-61.2c0-33.8 27.4-61.2 61.2-61.2c33.7 0 61.1 27.4 61.1 61.2z" />
					</g>
					<g id="&lt;Group&gt;">
						<path id="&lt;Compound Path&gt;" fill-rule="evenodd" class="s25" d="m1214.3 375.5c-10.9 0-19.9-9-19.9-19.9c0-11 9-19.9 19.9-19.9c11 0 20 8.9 20 19.9c0 10.9-9 19.9-20 19.9zm0-35.3c-8.4 0-15.3 6.9-15.3 15.4c0 8.5 6.9 15.4 15.3 15.4c8.5 0 15.4-6.9 15.4-15.4c0-8.5-6.9-15.4-15.4-15.4z" />
						<path id="&lt;Path&gt;" class="s25" d="m1231.1 375.5l-5.9-5.8l3.2-3.2l5.9 5.9z" />
						<path id="&lt;Path&gt;" class="s25" d="m1237.3 371.5l11.6 11.6c1.3 1.3 1.3 3.3 0 4.5l-2.6 2.6c-1.2 1.2-3.2 1.2-4.4 0l-11.7-11.6c-1.2-1.3-1.2-3.3 0-4.5l2.6-2.6c1.3-1.2 3.3-1.2 4.5 0z" />
					</g>
				</g>
			</g>
		</g>
	</g>
</svg>